<?xml version="1.0" encoding="UTF-8"?>
<svg width="34px" height="24px" viewBox="0 0 34 24" version="1.1" xmlns="http://www.w3.org/2000/svg" xmlns:xlink="http://www.w3.org/1999/xlink">
    <!-- Generator: Sketch 41.2 (35397) - http://www.bohemiancoding.com/sketch -->
    <title>车位</title>
    <desc>Created with Sketch.</desc>
    <defs></defs>
    <g id="业主" stroke="none" stroke-width="1" fill="none" fill-rule="evenodd">
        <g id="财产车位页" transform="translate(-25.000000, -525.000000)" fill="#FFFFFF">
            <g id="Group-3" transform="translate(10.000000, 293.000000)">
                <g id="Group-9-Copy" transform="translate(0.000000, 196.000000)">
                    <g id="Group-8" transform="translate(0.000000, 16.000000)">
                        <g id="车位" transform="translate(15.000000, 20.000000)">
                            <path d="M4.31303784,23.6561194 C4.66296216,23.8739104 5.05111351,23.9928358 5.4672,23.9928358 C5.87887568,23.9928358 6.27731892,23.8739104 6.61989189,23.6561194 C7.29768649,23.2420299 7.81375135,22.481194 8.02694054,21.5527164 L2.91481081,21.5527164 C3.12211892,22.4797612 3.63671351,23.240597 4.31303784,23.6561194 L4.31303784,23.6561194 Z M25.9745297,21.5541493 C26.1862486,22.4826269 26.7037838,23.2420299 27.3786378,23.6575522 C27.7241514,23.8753433 28.1167135,23.9942687 28.5328,23.9942687 C28.9488865,23.9942687 29.3429189,23.8753433 29.6884324,23.6575522 C30.3618162,23.2434627 30.8778811,22.4826269 31.0881297,21.5541493 L25.9745297,21.5541493 Z M31.563027,9.14865672 L28.6842378,2.52895522 C28.0299676,0.997253731 26.4964757,0.00573134328 24.7777297,0.00573134328 L9.2208,0.00573134328 C7.50205405,0.00573134328 5.97003243,0.995820896 5.32017297,2.51892537 L2.43109189,9.14865672 C1.00345946,9.77767164 0.0124972973,11.1646567 0.0124972973,12.7866269 L0.0124972973,21.2432239 L33.988973,21.2432239 L33.988973,12.7866269 C33.988973,11.1646567 33.0009514,9.77480597 31.5644973,9.14865672 L31.563027,9.14865672 Z M7.77405405,3.71391045 C8.02252973,3.12501493 8.6076973,2.74244776 9.26490811,2.74244776 L24.7336216,2.74244776 C25.3908324,2.74244776 25.976,3.12358209 26.2288865,3.72107463 L28.4916324,8.97814925 L5.50248649,8.97814925 L7.77405405,3.71247761 L7.77405405,3.71391045 Z M5.3980973,15.7053134 C4.45712432,15.7053134 3.6867027,14.9645373 3.6867027,14.041791 C3.6867027,13.1219104 4.45565405,12.3797015 5.3980973,12.3797015 C6.34348108,12.3797015 7.11096216,13.1219104 7.11096216,14.041791 C7.11096216,14.9645373 6.34348108,15.7053134 5.3980973,15.7053134 L5.3980973,15.7053134 Z M28.5989622,15.7081791 C27.6506378,15.7081791 26.884627,14.9659701 26.884627,14.041791 C26.884627,13.1176119 27.6506378,12.3782687 28.5989622,12.3782687 C29.5458162,12.3782687 30.3088865,13.1204776 30.3088865,14.041791 C30.3088865,14.9659701 29.5458162,15.7081791 28.5989622,15.7081791 Z" id="Shape"></path>
                        </g>
                    </g>
                </g>
            </g>
        </g>
    </g>
</svg>