<?xml version="1.0" encoding="UTF-8"?>
<svg width="28px" height="29px" viewBox="0 0 28 29" version="1.1" xmlns="http://www.w3.org/2000/svg" xmlns:xlink="http://www.w3.org/1999/xlink">
    <!-- Generator: Sketch 41.2 (35397) - http://www.bohemiancoding.com/sketch -->
    <title>新房</title>
    <desc>Created with Sketch.</desc>
    <defs></defs>
    <g id="业主" stroke="none" stroke-width="1" fill="none" fill-rule="evenodd">
        <g id="财产车位页" transform="translate(-28.000000, -424.000000)" fill="#FFFFFF">
            <g id="Group-3" transform="translate(10.000000, 293.000000)">
                <g id="Group-9" transform="translate(0.000000, 98.000000)">
                    <g id="Group-8" transform="translate(0.000000, 16.000000)">
                        <g id="新房" transform="translate(18.962963, 17.777778)">
                            <path d="M25.0534251,13.4438665 C23.7273066,12.4923395 21.4209843,10.8371665 20.100826,9.89063912 C19.4555638,9.42654156 18.8790111,9.32671153 18.0955222,9.89063912 C17.9411973,10.0004412 17.7733367,10.1202154 17.5952545,10.248295 C16.2420087,11.2197663 14.2909873,12.6204465 13.1217002,13.4588383 C12.6070334,13.8281056 12.1271252,14.1242078 12.1271252,14.900281 L12.1271252,25.8294278 C12.1271252,26.6187516 12.7215028,27.2591773 13.4549427,27.2591773 L24.7405699,27.2591773 C25.4740098,27.2591773 26.0683874,26.6187516 26.0683874,25.8294278 L26.0683874,14.8985598 C26.0683595,14.1591784 25.6045773,13.8397715 25.0534251,13.4438665 Z M19.263918,21.0926109 L15.7002145,23.2551575 C15.4458195,23.4281252 15.1049735,23.3549329 14.9379484,23.090468 L14.7378358,22.7710885 C14.5707829,22.5065963 14.6420269,22.1523008 14.8963662,21.9792785 L18.4601254,19.8167319 C18.7144647,19.6437642 19.0553385,19.7169565 19.2215281,19.9814214 L19.4233118,20.3008009 C19.5895013,20.5652931 19.518313,20.9195886 19.263918,21.0926109 Z M19.263918,16.1337309 L15.7002145,18.2962775 C15.4458195,18.4692452 15.1049735,18.3944137 14.9379484,18.1299215 L14.7378358,17.8105419 C14.5707829,17.5460224 14.6420269,17.1917542 14.8963662,17.018732 L18.4601254,14.8561853 C18.7144647,14.683163 19.0553385,14.7580492 19.2215281,15.0225414 L19.4233118,15.341921 C19.5895013,15.6055662 19.518313,15.9607086 19.263918,16.1337309 Z M17.2628754,7.78964616 L17.2628754,6.51207327 C17.2628754,5.6204606 16.6896928,5.23450038 16.007973,4.75709759 C14.3681358,3.60927093 11.5149505,1.61141381 9.8827167,0.468614166 C9.08399304,-0.0903137171 8.37177596,-0.210087885 7.40173807,0.468614166 C7.21098354,0.60169355 7.00410302,0.746411542 6.78446656,0.901101644 C5.11073416,2.07220556 2.69757379,3.76232179 1.25105343,4.77537518 C0.614285915,5.22119516 0.0207438311,5.57800415 0.0207438311,6.51458678 L0.0207438311,25.5341725 C0.0207438311,26.4864919 0.755882644,27.2592046 1.66314339,27.2592046 L9.19250226,27.2592046 C9.96833204,27.2592046 10.659382,26.9365193 10.659382,25.7321387 L10.659382,25.3511781 L10.659382,25.3312613 L10.659382,14.127541 C10.659382,13.1943188 11.2664878,12.8383294 11.9159834,12.3925094 C13.0869416,11.5923666 14.8734723,10.3713477 16.4149383,9.31589249 C17.1051805,8.84430906 17.2628754,8.36272619 17.2628754,7.78964616 Z M7.89100438,17.2781971 L3.59296982,20.2034844 C3.33857474,20.3764521 2.99772878,20.3024402 2.83156709,20.037948 L2.6305911,19.7185684 C2.46442941,19.4540763 2.53561767,19.0997261 2.78914936,18.9267585 L7.08718392,16.0006242 C7.341579,15.8276566 7.68242496,15.9024881 7.84945003,16.1669803 L8.04956265,16.4863599 C8.21572434,16.7508793 8.14537159,17.1052295 7.89100438,17.2781971 Z M7.89100438,12.3176779 L3.59296982,15.2437848 C3.33857474,15.4167525 2.99772878,15.3427406 2.83156709,15.0782484 L2.6305911,14.7596884 C2.46442941,14.4943493 2.53561767,14.1391796 2.78914936,13.9662119 L7.08718392,11.0417716 C7.341579,10.8687492 7.68242496,10.9419689 7.84945003,11.2064337 L8.04956265,11.5258133 C8.21572434,11.7903601 8.14537159,12.1446556 7.89100438,12.3176779 Z M7.89100438,7.35879792 L3.59296982,10.2832383 C3.33857474,10.4562606 2.99772878,10.383041 2.83156709,10.1185761 L2.6305911,9.79919654 C2.46442941,9.53467704 2.53561767,9.18038156 2.78914936,9.00735924 L7.08718392,6.08125232 C7.341579,5.90825734 7.68242496,5.98311618 7.84945003,6.24760837 L8.04956265,6.56698794 C8.21572434,6.83145281 8.14537159,7.18580295 7.89100438,7.35879792 Z" id="Shape"></path>
                        </g>
                    </g>
                </g>
            </g>
        </g>
    </g>
</svg>