<?xml version="1.0" encoding="UTF-8"?>
<svg width="375px" height="260px" viewBox="0 0 375 260" version="1.1" xmlns="http://www.w3.org/2000/svg" xmlns:xlink="http://www.w3.org/1999/xlink">
    <!-- Generator: Sketch 41.2 (35397) - http://www.bohemiancoding.com/sketch -->
    <title>Group 8</title>
    <desc>Created with Sketch.</desc>
    <defs>
        <linearGradient x1="50%" y1="95.9063919%" x2="50%" y2="50%" id="linearGradient-1">
            <stop stop-color="#E3F0FF" offset="0%"></stop>
            <stop stop-color="#FFFFFF" offset="100%"></stop>
        </linearGradient>
        <path d="M3.34459795,8.80040901 C3.97995215,3.94007732 8.98859225,0 14.5237611,0 L104.732639,0 C110.271366,0 115.276789,3.94268887 115.911802,8.80040901 L119.186815,31.4897131 C121.350114,38.4633605 115.397459,42.7228932 109.301593,42.7228932 L9.95480688,42.7228932 C3.85502212,42.7228932 -0.574432712,38.7802043 0.0605801029,33.9224842 L3.34459795,8.80040901 Z" id="path-2"></path>
        <mask id="mask-3" maskContentUnits="userSpaceOnUse" maskUnits="objectBoundingBox" x="0" y="0" width="119.640298" height="42.7228932" fill="white">
            <use xlink:href="#path-2"></use>
        </mask>
        <path d="M3.34459795,7.99055175 C3.97995215,3.57749188 8.98859225,0 14.5237611,0 L104.732639,0 C110.271366,0 115.276789,3.5798631 115.911802,7.99055175 L119.19582,30.800769 C119.831174,35.2138289 115.397459,38.7913208 109.301593,38.7913208 L9.95480688,38.7913208 C3.85502212,38.7913208 -0.574432712,35.2114577 0.0605801029,30.800769 L3.34459795,7.99055175 Z" id="path-4"></path>
        <mask id="mask-5" maskContentUnits="userSpaceOnUse" maskUnits="objectBoundingBox" x="0" y="0" width="119.256412" height="38.7913208" fill="white">
            <use xlink:href="#path-4"></use>
        </mask>
        <polygon id="path-6" points="18.0551019 3.04234725 100.284521 3.04234725 104.471698 34.9869933 13.8679245 34.9869933"></polygon>
        <mask id="mask-7" maskContentUnits="userSpaceOnUse" maskUnits="objectBoundingBox" x="0" y="0" width="90.6037736" height="31.9446461" fill="white">
            <use xlink:href="#path-6"></use>
        </mask>
        <rect id="path-8" x="0" y="0" width="8.32075472" height="16.6034483" rx="4.16037736"></rect>
        <mask id="mask-9" maskContentUnits="userSpaceOnUse" maskUnits="objectBoundingBox" x="0" y="0" width="8.32075472" height="16.6034483" fill="white">
            <use xlink:href="#path-8"></use>
        </mask>
        <path d="M3.85869381,1.96812617 C4.55300999,-0.639884996 5.72999286,-0.662717984 6.49429152,1.94005572 L10.5897608,15.8869331 C11.351045,18.4794414 9.78144784,20.5810846 7.08479041,20.5810846 L3.78686772,20.5810846 C1.0898418,20.5810846 -0.53426425,18.4690864 0.160640967,15.8588627 L3.85869381,1.96812617 Z" id="path-10"></path>
        <mask id="mask-11" maskContentUnits="userSpaceOnUse" maskUnits="objectBoundingBox" x="0" y="0" width="10.7818472" height="20.5810846" fill="white">
            <use xlink:href="#path-10"></use>
        </mask>
        <path d="M0.074534949,33.4838343 C0.074534949,25.7435106 0.0621758909,18.4013056 0.0621758909,9.13168293 C8.87833526,6.34410477 18.5813539,3.01673006 31.8962264,0 C45.2110989,3.01673006 54.9141176,6.34410477 63.7302769,9.13168293 C63.7302769,18.4013056 63.7179178,25.7435106 63.7179179,33.4838343 C63.7179179,55.2898954 45.8844828,67.2861635 31.8962264,71.0258621 C17.9079701,67.2861635 0.074534949,55.2898954 0.074534949,33.4838343 Z" id="path-12"></path>
        <mask id="mask-13" maskContentUnits="userSpaceOnUse" maskUnits="objectBoundingBox" x="-4" y="-4" width="71.668101" height="79.0258621">
            <rect x="-3.93782411" y="-4" width="71.668101" height="79.0258621" fill="white"></rect>
            <use xlink:href="#path-12" fill="black"></use>
        </mask>
        <rect id="path-14" x="27" y="33" width="100" height="31" rx="9"></rect>
        <mask id="mask-15" maskContentUnits="userSpaceOnUse" maskUnits="objectBoundingBox" x="0" y="0" width="100" height="31" fill="white">
            <use xlink:href="#path-14"></use>
        </mask>
        <polygon id="path-16" points="0 18.8134405 86.7952035 18.8134405 86.7952035 0.000102702703 0 0.000102702703"></polygon>
        <rect id="path-18" x="265" y="39" width="68" height="32" rx="10"></rect>
        <mask id="mask-19" maskContentUnits="userSpaceOnUse" maskUnits="objectBoundingBox" x="0" y="0" width="68" height="32" fill="white">
            <use xlink:href="#path-18"></use>
        </mask>
        <polygon id="path-20" points="0.000280660363 20.4057971 22.0045003 20.4057971 22.0045003 0.248950725 0.000280660363 0.248950725 0.000280660363 20.4057971"></polygon>
        <polygon id="path-22" points="0 20.7947188 57.7062581 20.7947188 57.7062581 0.637617391 0 0.637617391"></polygon>
    </defs>
    <g id="业主" stroke="none" stroke-width="1" fill="none" fill-rule="evenodd">
        <g id="添加房产" transform="translate(0.000000, -64.000000)">
            <g id="Group-8" transform="translate(0.000000, 64.000000)">
                <rect id="Rectangle" fill="url(#linearGradient-1)" x="0" y="0" width="375" height="260"></rect>
                <g id="Group-7" transform="translate(88.000000, 27.000000)">
                    <g id="Group-4" transform="translate(39.811321, 78.646552)" stroke="#3D6491">
                        <use id="Rectangle-4" mask="url(#mask-3)" stroke-width="2" fill="#C9E8FC" xlink:href="#path-2"></use>
                        <use id="Rectangle-4" mask="url(#mask-5)" stroke-width="2" fill="#FFFFFF" xlink:href="#path-4"></use>
                        <use id="Rectangle-5" mask="url(#mask-7)" stroke-width="2" fill="#C9E8FC" xlink:href="#path-6"></use>
                        <path d="M9.24528302,12.9299758 L7.85849057,23.9584846" id="Line" stroke-width="2" stroke-linecap="round"></path>
                        <path d="M109.09434,21.2964307 C111.647354,21.2964307 113.300238,19.9658352 113.135472,18.3244625 C112.970706,16.6830898 111.317822,15.3524943 109.09434,15.3524943 C106.870858,15.3524943 105.245982,16.6830898 105.081216,18.3244625 C104.91645,19.9658352 106.541325,21.2964307 109.09434,21.2964307 Z" id="Oval-2"></path>
                    </g>
                    <circle id="Oval" stroke="#3D6491" cx="41.5" cy="14.5" r="1.5"></circle>
                    <circle id="Oval-Copy" stroke="#3D6491" cx="1.5" cy="64.5" r="1.5"></circle>
                    <g id="Group-3" transform="translate(135.000000, 0.000000)" stroke="#3D6491" stroke-linecap="round">
                        <path d="M2.5,0.833333333 L2.5,4.16666667" id="Line"></path>
                        <path d="M0.833333333,2.5 L4.16666667,2.5" id="Line"></path>
                    </g>
                    <g id="Group-3-Copy" transform="translate(155.000000, 58.000000)" stroke="#3D6491" stroke-linecap="round">
                        <path d="M2.5,0.833333333 L2.5,4.16666667" id="Line"></path>
                        <path d="M0.833333333,2.5 L4.16666667,2.5" id="Line"></path>
                    </g>
                    <g id="Group-6" transform="translate(13.000000, 71.000000)">
                        <use id="Rectangle-2" stroke="#436A94" mask="url(#mask-9)" stroke-width="2" fill="#A6EA83" xlink:href="#path-8"></use>
                        <path d="M4.16037736,16.1422414 L4.16037736,28.2747006" id="Line" stroke="#496F98" stroke-linecap="round"></path>
                    </g>
                    <path d="M5.5,104.5 L7.5,104.5" id="Line" stroke="#496F98" stroke-linecap="round"></path>
                    <path d="M23.5,94.5 L25.5,94.5" id="Line" stroke="#496F98" stroke-linecap="round"></path>
                    <g id="Group-6-Copy" transform="translate(190.622642, 75.000000)">
                        <path d="M5.38679245,19.4612069 L5.38679245,31.5936661" id="Line" stroke="#496F98" stroke-linecap="round"></path>
                        <use id="Rectangle-2" stroke="#436A94" mask="url(#mask-11)" stroke-width="2" fill="#A6EA83" xlink:href="#path-10"></use>
                    </g>
                    <path d="M176.5,108.5 L177.907899,108.5" id="Line" stroke="#496F98" stroke-linecap="round"></path>
                    <path d="M192.5,114.5 L193.615533,114.5" id="Line-Copy" stroke="#496F98" stroke-linecap="round"></path>
                    <path d="M205.5,108.5 L206.826276,108.5" id="Line-Copy-2" stroke="#496F98" stroke-linecap="round"></path>
                    <g id="Group" transform="translate(68.000000, 14.000000)">
                        <g id="Shape">
                            <use fill="#0076EF" fill-rule="evenodd" xlink:href="#path-12"></use>
                            <use stroke="#0F8DE9" mask="url(#mask-13)" stroke-width="8" xlink:href="#path-12"></use>
                        </g>
                        <path d="M17.7862517,35.9495532 C17.6413131,35.8000251 17.6233362,35.5432105 17.7461782,35.3761128 L19.0581156,33.5941113 C19.1167102,33.5145862 19.2048698,33.461906 19.3027716,33.4479159 C19.4006734,33.4339259 19.5001002,33.4598002 19.578696,33.519721 L27.6364559,39.6840182 C27.8012439,39.8099957 28.0641557,39.8043884 28.2214534,39.6735513 L47.9499508,23.2684462 C48.1148691,23.1374962 48.3512863,23.1480266 48.5038633,23.2931184 L49.7270399,24.4990628 C49.7978913,24.5681374 49.8378368,24.6628153 49.8378368,24.7616715 C49.8378368,24.8605277 49.7978913,24.9552056 49.7270399,25.0242803 L28.2008549,46.1698009 C28.1298217,46.2394535 28.033749,46.2777293 27.9341876,46.2760426 C27.8346262,46.2743559 27.7399102,46.2328478 27.6712861,46.1608292 L17.7862517,35.9495532 Z" id="Shape" fill="#FFFFFF"></path>
                    </g>
                </g>
                <text id="中奥到家服务升级" font-family="PingFangSC-Medium, PingFang SC" font-size="17" font-weight="400" fill="#454545">
                    <tspan x="120" y="182">中奥到家服务升级</tspan>
                </text>
                <text id="让您体验更便捷，更贴心的服务" font-family="PingFangSC-Regular, PingFang SC" font-size="13" font-weight="normal" fill="#454545">
                    <tspan x="97" y="208">让您体验更便捷，更贴心的服务</tspan>
                </text>
                <use id="Rectangle-6" stroke="#C9E8FC" mask="url(#mask-15)" stroke-width="2" fill="#FFFFFF" opacity="0.400000006" xlink:href="#path-14"></use>
                <g id="Page-1" transform="translate(34.000000, 40.000000)">
                    <g id="Group-3" transform="translate(16.168142, 12.908035)" fill="#F8B62D">
                        <path d="M0.261667257,0.205636486 C0.261667257,0.205636486 0.460304425,0.512460811 0.858092035,0.992339189 C1.25203009,1.47247432 1.86898584,2.12951486 2.72641062,2.76087973 C4.41918938,4.03310946 7.13749027,5.19929865 9.94689735,5.10815 C11.362508,5.07528514 12.6977912,4.77231216 13.9129681,4.30527162 C15.1242956,3.87058243 16.1913929,3.28286622 17.0416319,2.68077162 C17.4594372,2.37060946 17.8461894,2.08227162 18.1672425,1.79727162 C18.4775168,1.50533919 18.7528885,1.24627162 18.9682071,1.01981216 C19.3985876,0.570744595 19.6357204,0.289595946 19.6357204,0.289595946 C19.6524018,0.269568919 19.6852513,0.267771622 19.705269,0.284460811 C19.7214372,0.298839189 19.7270832,0.322460811 19.7181009,0.344541892 C19.7181009,0.344541892 19.5828531,0.683974324 19.2474283,1.23523108 C18.9243221,1.79008243 18.3679327,2.54546081 17.5377115,3.29750135 C16.6987646,4.03131216 15.6006142,4.80132568 14.2650743,5.27401486 C12.9480124,5.75055541 11.4063929,5.95133919 9.93945487,5.89665 C6.9368,5.83092027 4.14920708,4.47293378 2.51109204,3.03098784 C1.67368496,2.31925811 1.09522478,1.61137973 0.725153982,1.09093378 C0.354569912,0.574595946 0.179543363,0.26237973 0.179543363,0.26237973 C0.163118584,0.238758108 0.168507965,0.209487838 0.190578761,0.191001351 C0.21239292,0.176622973 0.245242478,0.187663514 0.261667257,0.205636486" id="Fill-1"></path>
                    </g>
                    <path d="M34.4046761,13.2086973 C34.4046761,13.2086973 35.5431186,12.7560351 35.9262779,12.8035351 C36.174446,12.8328054 36.2855699,12.9421838 36.2070389,13.509873 C36.1305611,14.0775622 36.0574195,14.5084 36.0574195,14.5084 C36.0574195,14.5084 36.0430478,14.5885081 36.1159327,14.5885081 C36.2088354,14.5903054 36.3402336,14.4023595 36.3931009,14.3112108 C36.6084195,13.9240216 36.9076584,12.5480622 36.6430655,12.350873 C36.6430655,12.350873 36.5209062,12.2597243 36.1852248,12.2887378 C36.1852248,12.2887378 35.0942602,12.3619135 34.3810655,13.0772378 C34.3810655,13.0772378 34.2989416,13.1540081 34.3097204,13.1940622 C34.3151097,13.2125486 34.3461628,13.2379676 34.4046761,13.2086973" id="Fill-4" fill="#F8B62D"></path>
                    <path d="M17.7796434,13.2086973 C17.7796434,13.2086973 16.6396611,12.7560351 16.2600947,12.8035351 C16.0083336,12.8328054 15.8987496,12.9421838 15.9754841,13.509873 C16.0558115,14.0775622 16.1286965,14.5084 16.1286965,14.5084 C16.1286965,14.5084 16.1433248,14.5885081 16.0686434,14.5885081 C15.9754841,14.5903054 15.8440858,14.4023595 15.793015,14.3112108 C15.5741035,13.9240216 15.2769177,12.5480622 15.541254,12.350873 C15.541254,12.350873 15.6634133,12.2597243 15.9975549,12.2887378 C15.9975549,12.2887378 17.0882628,12.3619135 17.8035106,13.0772378 C17.8035106,13.0772378 17.8835814,13.1540081 17.8728027,13.1940622 C17.8692097,13.2125486 17.8363602,13.2379676 17.7796434,13.2086973" id="Fill-6" fill="#F8B62D"></path>
                    <path d="M62.6851425,9.2701 C63.8418062,10.5002216 65.6844611,10.9182216 66.5144257,10.9182216 L66.5144257,11.9986541 C64.9656204,11.9986541 62.8529832,11.1554649 61.6419124,9.85396486 C60.4157,11.1572622 58.2740628,11.9986541 56.6960009,11.9986541 L56.6960009,10.9182216 C56.6960009,10.9182216 59.0693814,10.8704649 60.5799478,9.2701 L56.8546027,9.2701 L56.8546027,8.63205946 L60.9849212,8.63205946 L60.9849212,8.00069459 L62.318408,8.00069459 L62.318408,8.63205946 L66.4615584,8.63205946 L66.4615584,9.2701 L62.6851425,9.2701 Z" id="Fill-8" fill="#717171"></path>
                    <path d="M71.8431372,6.33796351 C71.8870221,6.51846351 71.9270575,6.70281486 71.9637566,6.89281486 L72.9158805,6.89281486 C72.5473496,4.95353108 71.9126858,3.33545 71.9126858,3.33545 L70.911031,3.33545 C70.9164204,3.34905811 71.310615,4.47262568 71.6498894,5.62700405 L68.5684469,5.62700405 L69.5554735,2.49149054 L72.4783142,2.49149054 L72.4783142,1.84985541 L67.1764469,1.84985541 L67.1764469,2.49149054 L68.2858894,2.49149054 C68.2858894,2.49149054 67.1910752,5.61699054 67.1035619,5.84242297 C67.0160487,6.0732473 67.1181903,6.33796351 67.424615,6.33796351 L69.1815531,6.33796351 L69.1815531,8.28443649 L67.3663584,8.28443649 L67.3663584,8.91862568 L69.1815531,8.91862568 L69.1815531,11.0730716 C68.0705708,11.124423 67.1910752,11.0658824 67.1692611,11.0658824 L67.1692611,11.7850581 C67.2277743,11.7886527 67.6691903,11.817923 68.3331106,11.817923 C69.5226239,11.817923 70.7413938,11.7193284 72.3738628,11.2009365 L72.3738628,10.4162878 C71.7338097,10.658923 71.014969,10.8104095 70.2668717,10.9143959 L70.2668717,8.91862568 L72.1844646,8.91862568 L72.1844646,8.28443649 L70.2668717,8.28443649 L70.2668717,6.33796351 L71.8431372,6.33796351 Z" id="Fill-10" fill="#717171"></path>
                    <path d="M75.1049699,10.9181959 L73.3775451,10.9181959 L73.3775451,11.1554392 L73.3775451,11.8253176 L75.6415982,11.8253176 C75.9205628,11.8253176 76.1412708,11.6045068 76.1412708,11.3269527 L76.1412708,11.025777 L76.1412708,6.3679527 L76.1412708,1.57070946 L75.1049699,1.57070946 L75.1049699,10.9181959 Z" id="Fill-12" fill="#717171"></path>
                    <mask id="mask-17" fill="white">
                        <use xlink:href="#path-16"></use>
                    </mask>
                    <g id="Clip-15"></g>
                    <polygon id="Fill-14" fill="#717171" mask="url(#mask-17)" points="73.3774425 9.84672432 74.4155398 9.84672432 74.4155398 2.89015676 73.3774425 2.89015676"></polygon>
                    <polygon id="Fill-16" fill="#717171" mask="url(#mask-17)" points="78.0239611 2.83988378 85.5290584 2.83988378 85.5290584 3.88385676 86.5799876 3.88385676 86.5799876 2.2003027 82.6064743 2.2003027 82.3293062 1.59076216 80.6727133 1.59076216 80.9519345 2.2003027 76.9804743 2.2003027 76.9804743 3.88385676 78.0239611 3.88385676"></polygon>
                    <path d="M52.0329292,8.30361622 L54.8369469,8.30361622 L54.8369469,3.90871081 L52.0329292,3.90871081 L52.0329292,8.30361622 Z M47.7532478,8.30361622 L50.5205664,8.30361622 L50.5205664,3.90871081 L47.7532478,3.90871081 L47.7532478,8.30361622 Z M55.6615221,3.27708919 L55.6615221,3.27452162 L55.6289292,3.27452162 L52.0329292,3.27452162 L52.0329292,1.59071081 L50.5205664,1.59071081 L50.5205664,3.27452162 L46.9558761,3.27452162 L46.9322655,3.27452162 L46.9322655,3.27708919 C46.6676726,3.29352162 46.4577434,3.50534595 46.4577434,3.7734 L46.4577434,8.43764324 C46.4577434,8.70595405 46.6676726,8.91880541 46.9322655,8.93138649 L46.9322655,8.9396027 L46.9558761,8.9396027 L50.5205664,8.9396027 L50.5205664,11.8178459 L52.0329292,11.8178459 L52.0329292,8.9396027 L55.6289292,8.9396027 L55.6615221,8.9396027 L55.6615221,8.93138649 C55.9171327,8.91880541 56.1286018,8.70595405 56.1286018,8.43764324 L56.1286018,3.7734 C56.1286018,3.50534595 55.9171327,3.29352162 55.6615221,3.27708919 L55.6615221,3.27708919 Z" id="Fill-17" fill="#717171" mask="url(#mask-17)"></path>
                    <path d="M58.0842283,2.86735676 L65.2172018,2.86735676 L65.2172018,8.16219459 L66.2717239,8.16219459 L66.2717239,2.75797838 L66.2717239,2.7168973 C66.2717239,2.44755946 66.0453699,2.22032973 65.7699982,2.22032973 L60.6239097,2.22032973 L60.8571929,1.59076216 L59.1405469,1.59076216 L58.8649186,2.22032973 L57.5296354,2.22032973 C57.2578566,2.22032973 57.0315027,2.44755946 57.0315027,2.7168973 L57.0315027,8.16219459 L58.0842283,8.16219459 L58.0842283,2.86735676 Z" id="Fill-18" fill="#717171" mask="url(#mask-17)"></path>
                    <polygon id="Fill-19" fill="#717171" mask="url(#mask-17)" points="61.016 3.05715135 61.016 4.75174595 60.8899912 4.75174595 60.0307699 3.20607027 58.9036195 3.20607027 59.7004779 4.75174595 58.5987345 4.75174595 58.5987345 5.6753 59.6147611 5.6753 58.7991681 7.65746216 60.0307699 7.65746216 60.8899912 5.6753 61.016 5.6753 61.016 7.64565135 62.3184336 7.64565135 62.3184336 3.05715135"></polygon>
                    <polygon id="Fill-20" fill="#717171" mask="url(#mask-17)" points="62.318485 3.05715135 62.318485 4.75174595 62.4370513 4.75174595 63.298069 3.20607027 64.4293257 3.20607027 63.6358035 4.75174595 64.7393434 4.75174595 64.7393434 5.6753 63.7233168 5.6753 64.5314673 7.65746216 63.298069 7.65746216 62.4370513 5.6753 62.318485 5.6753 62.318485 7.64565135 61.0178478 7.64565135 61.0178478 3.05715135"></polygon>
                    <path d="M83.2925425,7.58988378 C84.8469938,7.24300541 86.3901531,6.30122162 86.3901531,6.30122162 L86.3901531,5.3276 C86.3901531,5.3276 84.2577549,6.53307297 82.7928699,6.64450541 C82.632215,6.16257297 82.4168965,5.40334324 82.1707814,5.10678919 C82.1759142,5.10242432 82.1797637,5.09857297 82.1797637,5.09857297 L86.3354894,5.09677568 L86.3354894,4.18400541 L77.2561796,4.18400541 L77.2561796,5.09677568 L81.2420115,5.09677568 C79.7352947,5.84778919 77.2451442,6.65272162 77.0259761,6.72769459 L76.9402593,6.75491081 L76.9402593,7.76422162 L77.1045071,7.70850541 C77.1299142,7.70208649 77.1848345,7.68103243 78.1918788,7.28331622 C78.9487018,6.97931622 80.2642239,6.55335676 81.2563832,6.01288378 C81.3731531,6.18285676 81.4827372,6.63526216 81.5758965,6.82603243 C79.6475248,7.94934324 77.3051973,8.63847838 77.0259761,8.73424865 L76.9402593,8.76172162 L76.9402593,9.77000541 L77.1045071,9.71531622 C77.1299142,9.70812703 77.1848345,9.6898973 78.1918788,9.29012703 C79.1368168,8.91115405 80.7420823,8.34731622 81.9826664,7.61915405 C82.0373301,7.81993784 82.084808,8.30341081 82.1215071,8.50522162 C80.0345336,9.8211 77.3308611,10.6352757 77.0259761,10.7410595 L76.9402593,10.7667351 L76.9402593,11.7778432 L77.1045071,11.7231541 C77.1299142,11.7157081 77.1848345,11.701073 78.1918788,11.2977081 C79.1914805,10.8981946 80.8952947,10.2883973 82.2072239,9.49270811 C82.1687283,10.4162622 81.8733389,11.1079649 81.3608345,11.1079649 L80.3407018,11.1079649 L80.3407018,11.8253432 L82.2890912,11.8253432 C82.7233212,11.8253432 82.8803832,11.6189108 83.0300027,11.2740865 C83.2435248,10.7667351 83.3325779,9.95641081 83.2925425,9.06931622 C84.0003478,10.0439649 85.7480469,11.3413568 86.7951265,11.6753973 L86.7951265,10.7300189 C85.3577018,10.0036541 83.6464451,8.25257297 83.2925425,7.58988378" id="Fill-21" fill="#717171" mask="url(#mask-17)"></path>
                    <path d="M14.7403664,10.4162365 C12.6590389,10.4162365 10.9660035,8.72138514 10.9660035,6.64088514 C10.9660035,4.55833108 12.6590389,2.86450676 14.7403664,2.86450676 C16.8219504,2.86450676 18.5149858,4.55833108 18.5149858,6.64088514 C18.5149858,8.72138514 16.8219504,10.4162365 14.7403664,10.4162365 M14.7403664,1.26208784 C11.7759504,1.26208784 9.36433097,3.67508784 9.36433097,6.64088514 C9.36433097,9.60591216 11.7759504,12.0186554 14.7403664,12.0186554 C17.7050389,12.0186554 20.1166584,9.60591216 20.1166584,6.64088514 C20.1166584,3.67508784 17.7050389,1.26208784 14.7403664,1.26208784" id="Fill-22" fill="#7FBE26" mask="url(#mask-17)"></path>
                    <path d="M9.05223451,10.7301473 L9.05223451,10.7301473 L9.04299558,10.7301473 C9.02862389,10.7301473 9.0175885,10.7265527 9.0175885,10.7265527 L8.59798673,10.7265527 C8.58515487,10.7265527 8.57232301,10.7301473 8.55795133,10.7301473 L2.97532301,10.7301473 C2.36965929,10.7044716 2.56316372,10.3285797 2.72561504,10.1113635 L2.84418142,9.97451216 L9.18183628,2.38735 C9.33145575,2.2715527 9.43180088,2.09079595 9.43180088,1.88641757 C9.43180088,1.56136351 9.18902212,1.29870135 8.87695133,1.25736351 L8.8754115,1.25017432 L8.80971239,1.25017432 L8.79508407,1.24837703 L8.39011062,1.24837703 C8.39011062,1.24837703 8.38266814,1.25017432 8.3754823,1.25017432 L1.65826106,1.25017432 C1.6564646,1.25017432 1.65107522,1.24837703 1.65107522,1.24837703 L1.24225221,1.24837703 L1.22788053,1.25017432 L1.18040265,1.25017432 L1.18040265,1.25479595 C0.859349558,1.28586351 0.605535398,1.55597162 0.605535398,1.88641757 C0.605535398,2.21480946 0.859349558,2.48312027 1.18040265,2.51598514 L1.18040265,2.51880946 L1.20940265,2.51880946 C1.22043805,2.51957973 1.23147345,2.52137703 1.23147345,2.52137703 L1.64568584,2.52137703 C1.65826106,2.52137703 1.6675,2.51957973 1.68007522,2.51880946 L6.29389823,2.51880946 C6.41965044,2.52779595 6.85567699,2.58274189 6.76636726,2.89547162 C6.72992478,2.97326892 6.67166814,3.06518784 6.56926991,3.17662027 C6.53282743,3.21590405 6.5035708,3.25236351 6.47816372,3.28907973 C6.34137611,3.44878243 6.2025354,3.61747162 6.06035841,3.79437703 L0.158730088,10.8798365 L0.164119469,10.8980662 C0.0619778761,11.0148905 0.000128318584,11.1681743 0.000128318584,11.3358365 C0.000128318584,11.6683365 0.240853982,11.9420392 0.554721239,11.9949311 L0.556517699,11.9985257 L0.581924779,11.9985257 C0.609384956,12.0041743 0.640438053,12.0041743 0.669438053,12.0041743 L1.09468584,12.0041743 C1.12368584,12.0041743 1.15473894,12.0041743 1.18399558,11.9985257 L8.53228761,11.9985257 C8.55435841,12.000323 8.57617257,12.0041743 8.59798673,12.0041743 L9.00296018,12.0041743 C9.35686283,12.0041743 9.64326991,11.7194311 9.64326991,11.3653635 C9.64326991,11.0295257 9.38252655,10.755823 9.05223451,10.7301473" id="Fill-23" fill="#7FBE26" mask="url(#mask-17)"></path>
                    <path d="M37.5590035,10.4162365 C35.4774195,10.4162365 33.7861805,8.72138514 33.7861805,6.64088514 C33.7861805,4.55833108 35.4774195,2.86450676 37.5590035,2.86450676 C39.6387912,2.86450676 41.3315699,4.55833108 41.3315699,6.64088514 C41.3315699,8.72138514 39.6387912,10.4162365 37.5590035,10.4162365 M37.5590035,1.26208784 C34.594331,1.26208784 32.184508,3.67508784 32.184508,6.64088514 C32.184508,9.60591216 34.594331,12.0186554 37.5590035,12.0186554 C40.521623,12.0186554 42.9332425,9.60591216 42.9332425,6.64088514 C42.9332425,3.67508784 40.521623,1.26208784 37.5590035,1.26208784" id="Fill-24" fill="#7FBE26" mask="url(#mask-17)"></path>
                    <path d="M32.209992,2.56756757e-05 C31.5132221,-0.00459594595 30.9493903,0.550255405 30.9457973,1.24401216 C30.936815,1.93648514 32.180992,3.60283649 32.180992,3.60283649 C32.180992,3.60283649 33.4487796,1.96036351 33.4505761,1.26943108 C33.4577619,0.573877027 32.9049655,0.00644459459 32.209992,2.56756757e-05" id="Fill-25" fill="#7FBE26" mask="url(#mask-17)"></path>
                    <path d="M29.2127779,1.22927432 C28.8003619,1.22927432 28.4646805,1.56228784 28.4646805,1.97386892 L28.4646805,2.44758514 C28.4646805,2.4501527 28.4685301,2.45220676 28.4685301,2.45477432 L28.4685301,7.31620676 C28.4685301,7.75140946 28.4685301,8.20432838 28.4718664,8.67573378 C28.4739195,9.14867973 28.4811053,9.60236892 28.4939372,10.0365446 L28.4829018,10.0365446 C28.3517602,9.77722027 28.2165124,9.52020676 28.0779283,9.26267973 C27.9411407,9.00797703 27.8007602,8.74608514 27.6621761,8.4826527 C27.5215389,8.21690946 27.3775655,7.94859865 27.2240965,7.67566622 C27.0726805,7.40196351 26.9176717,7.12286892 26.7534239,6.83504459 L24.1175035,2.13639595 C24.0225478,1.96385541 23.931185,1.82238243 23.8454681,1.70940946 C23.7579549,1.59617973 23.6686451,1.50836892 23.5754858,1.44469324 C23.4825832,1.38153108 23.3786451,1.33608514 23.2618752,1.30861216 C23.1448487,1.28036892 22.9990788,1.26676081 22.8276451,1.26676081 L22.0905832,1.26676081 C21.9373708,1.26676081 21.7913442,1.31323378 21.6617425,1.40823378 C21.5288044,1.50117973 21.4649018,1.65908514 21.4649018,1.87912568 L21.4649018,10.7993689 C21.4649018,10.801423 21.4631053,10.8032203 21.4631053,10.8068149 L21.4631053,11.2813014 C21.4631053,11.6921122 21.7985301,12.0258959 22.210946,12.0258959 C22.6269549,12.0258959 22.9608398,11.6921122 22.9608398,11.2813014 L22.9608398,10.8068149 C22.9608398,10.8032203 22.9590434,10.801423 22.9590434,10.7993689 L22.9590434,5.29553108 C22.9590434,4.88857162 22.9551938,4.4772473 22.9498044,4.06386892 C22.944415,3.65023378 22.9333796,3.24430135 22.9243973,2.84735541 L22.9423619,2.84735541 C23.0976274,3.17317973 23.2690611,3.50876081 23.4515301,3.85204459 C23.6322027,4.19686892 23.8126186,4.52731486 23.9914947,4.84132838 L27.4211938,10.9310851 C27.5379637,11.1465041 27.6493442,11.3234095 27.7568752,11.4602608 C27.8608133,11.5989095 27.965008,11.7085446 28.0707425,11.7886527 C28.1746805,11.8672203 28.2860611,11.9237068 28.402831,11.952977 C28.5193442,11.9822473 28.6543354,11.9986797 28.8113973,11.9986797 L29.3038841,11.9986797 C29.3842115,11.9986797 29.4606894,11.9858419 29.5374239,11.9640176 C29.6177513,11.9419365 29.6870434,11.9072743 29.750946,11.857977 C29.8148487,11.8071392 29.8620699,11.7450041 29.9023619,11.6684905 C29.9423973,11.5917203 29.9606186,11.4967203 29.9606186,11.3870851 L29.9606186,2.45477432 C29.9606186,2.45220676 29.962415,2.4501527 29.962415,2.44758514 L29.962415,1.97386892 C29.962415,1.56228784 29.6285301,1.22927432 29.2127779,1.22927432" id="Fill-26" fill="#7FBE26" mask="url(#mask-17)"></path>
                </g>
                <use id="Rectangle-7" stroke="#C9E8FC" mask="url(#mask-19)" stroke-width="2" fill="#FFFFFF" opacity="0.400000006" xlink:href="#path-18"></use>
                <g id="Page-1" transform="translate(270.000000, 44.000000)">
                    <path d="M32.2935269,5.27253913 L29.6853978,5.27253913 L29.6853978,4.41485797 L32.2935269,4.41485797 L32.2935269,3.09294493 L33.9493333,3.09294493 L33.9493333,4.41485797 L34.4251828,4.41485797 L34.4251828,5.27253913 L33.9493333,5.27253913 L33.9493333,11.440829 C33.9493333,12.7856986 32.8828817,13.8761333 31.5675914,13.8761333 L31.5675914,12.994858 C31.9686022,12.994858 32.2935269,12.6626261 32.2935269,12.2525971 L32.2935269,5.27253913 Z M31.1372688,13.5279594 L29.639871,13.5279594 L30.5017634,6.0148 L32.0665161,6.0148 L31.1372688,13.5279594 Z M27.9391613,10.6061043 L27.9391613,4.36830725 L25.8748602,4.36830725 L25.8748602,10.5601913 L24.4460645,10.5601913 L24.4460645,3.50998841 L28.5285161,3.50998841 C29.0043656,3.50998841 29.3904086,3.90471304 29.3904086,4.39190145 L29.3904086,10.6061043 L27.9391613,10.6061043 Z M25.8068817,13.9685971 L24.3325591,13.9685971 L26.237828,10.3280754 L26.237828,5.20303188 L27.5986452,5.20303188 L27.5986452,10.3280754 L29.4128602,13.9685971 L27.9616129,13.9685971 L26.9406882,11.7194957 L25.8068817,13.9685971 Z" id="Fill-1" fill="#F9BF0B"></path>
                    <path d="M43.5884968,13.8993449 L43.5884968,13.8993449 L43.5884968,13.0646203 C44.0518731,13.0646203 44.427314,12.6800986 44.427314,12.2063014 L44.427314,3.16270725 L46.0606688,3.16270725 L46.0606688,11.3715768 C46.0606688,12.7674609 44.9530559,13.8993449 43.5884968,13.8993449 L43.5884968,13.8993449 Z M42.1141742,11.9977797 L42.1141742,11.9977797 C43.0035075,11.9977797 43.7244538,11.2606203 43.7244538,10.351287 L43.7244538,3.97383768 L42.1141742,3.97383768 L42.1141742,11.9977797 Z M40.7982602,13.8062435 L35.9449699,13.8062435 L35.9449699,12.8790551 L38.009271,12.8790551 L38.009271,10.6758667 L36.013572,10.6758667 L36.013572,9.7945913 L38.009271,9.7945913 L38.009271,8.35725797 L39.6420022,8.35725797 L39.6420022,9.7945913 L41.5927978,9.7945913 C41.5927978,10.281142 41.2067548,10.6758667 40.7302817,10.6758667 L39.6420022,10.6758667 L39.6420022,12.8790551 L41.7056796,12.8790551 C41.7056796,13.391113 41.2996796,13.8062435 40.7982602,13.8062435 L40.7982602,13.8062435 Z M40.2569269,8.14809855 L40.2538086,8.14809855 L40.1633785,7.82351884 L36.0360237,7.82351884 L37.2147333,4.20595362 L35.9449699,4.20595362 L35.9449699,3.37122899 L41.6377011,3.37122899 L41.6377011,4.20595362 L38.9160667,4.20595362 L38.009271,6.9887942 L39.8683892,6.9887942 L39.4380667,5.66688116 L40.9572925,5.66688116 L41.2828409,6.71395362 C41.5029914,7.42433043 40.985357,8.14809855 40.2569269,8.14809855 L40.2569269,8.14809855 Z" id="Fill-3" fill="#F9BF0B"></path>
                    <path d="M55.408086,7.26688696 L55.7030753,8.24062609 L56.0404731,7.26752464 L57.7062581,7.26752464 L56.473914,10.3979014 L56.9690968,12.3109449 C57.188,13.1603362 56.5624731,13.9918725 55.7030753,13.9918725 L53.7753548,7.26688696 L55.408086,7.26688696 Z M49.1671613,6.43216232 L47.5344301,6.43216232 L47.5344301,3.55685797 L51.6624086,3.55685797 L51.6624086,2.93065507 L53.590129,2.93065507 L53.590129,3.55685797 L56.5967742,3.55685797 C57.2035914,3.55685797 57.6950323,4.05935072 57.6950323,4.67981449 L57.6950323,6.43216232 L56.0623011,6.43216232 L56.0623011,4.43749565 L49.1671613,4.43749565 L49.1671613,6.43216232 Z M51.5033763,14.0384232 L51.5033763,14.0384232 L51.5033763,13.1571478 L51.6393333,13.1571478 C52.2280645,13.1571478 52.7057849,12.6693217 52.7057849,12.0673507 L47.4664516,13.9918725 L47.4664516,12.5079884 L52.1432473,10.7275826 C52.4812688,10.5994087 52.7057849,10.2690899 52.7057849,9.89987246 C52.7057849,9.80422029 52.6122366,9.73917681 52.5255484,9.77361159 L47.6254839,11.7191768 L47.6254839,10.2352928 L52.2461505,8.38537971 C52.3403226,8.34775652 52.374,8.22851014 52.3135054,8.14497391 C52.1563441,7.92752464 51.8769462,7.84271304 51.6287312,7.93772754 L47.7614409,9.42352464 L47.7614409,8.00914783 L51.8663441,6.4092058 L49.5525806,6.4092058 L49.5525806,5.52793043 L55.6768817,5.52793043 L55.6768817,6.4092058 L54.4744731,6.4092058 L53.4766237,6.96526377 C54.0672258,7.82549565 54.3834194,8.85088696 54.3834194,9.90178551 L54.3834194,11.0929739 C54.3834194,12.7196986 53.0943226,14.0384232 51.5033763,14.0384232 L51.5033763,14.0384232 Z" id="Fill-5" fill="#F9BF0B"></path>
                    <path d="M11.0021634,9.92002319 C10.0928731,9.92002319 9.2740129,9.73382029 8.81936774,9.54825507 C9.00085161,10.0131246 9.18295914,10.8497623 9.18295914,11.7801391 C9.18295914,12.7105159 9.00085161,13.5471536 8.81936774,14.0126609 C9.2740129,13.826458 10.0928731,13.6402551 11.0021634,13.6402551 C11.9114538,13.6402551 12.730314,13.826458 13.1855828,14.0126609 C13.0034753,13.5471536 12.8213677,12.7105159 12.8213677,11.7801391 C12.8213677,10.8497623 13.0034753,10.0131246 13.1855828,9.54825507 C12.730314,9.73382029 11.9114538,9.92002319 11.0021634,9.92002319" id="Fill-7" fill="#F9BF0B"></path>
                    <g id="Group-11" transform="translate(0.000000, 0.388922)">
                        <mask id="mask-21" fill="white">
                            <use xlink:href="#path-20"></use>
                        </mask>
                        <g id="Clip-10"></g>
                        <path d="M11.0021634,17.9847768 C7.44108817,17.9847768 4.55418495,15.0329507 4.55418495,11.3911536 C4.55418495,7.7499942 7.44108817,4.79816812 11.0021634,4.79816812 C14.5632387,4.79816812 17.4501419,7.7499942 17.4501419,11.3911536 C17.4501419,15.0329507 14.5632387,17.9847768 11.0021634,17.9847768 M21.5338409,8.20083478 L11.7998194,0.54866087 C11.7910882,0.541646377 11.7817333,0.535269565 11.7736258,0.528255072 L11.7355828,0.498284058 C11.726228,0.491269565 11.7156258,0.486805797 11.706271,0.479791304 C11.6557548,0.443443478 11.6046151,0.409008696 11.550357,0.381588406 C11.5260344,0.368834783 11.5010882,0.358631884 11.4761419,0.347791304 C11.4312387,0.328023188 11.3863355,0.310168116 11.3401849,0.29613913 C11.3065075,0.286573913 11.2728301,0.27955942 11.238529,0.272544928 C11.1979914,0.264255072 11.1580774,0.256602899 11.1169161,0.252776812 C11.0782495,0.249588406 11.0408301,0.248950725 11.0021634,0.248950725 C10.9634968,0.248950725 10.9260774,0.249588406 10.8880344,0.252776812 C10.8462495,0.256602899 10.8063355,0.264255072 10.7657978,0.272544928 C10.7314968,0.27955942 10.6978194,0.286573913 10.6641419,0.29613913 C10.6179914,0.310168116 10.5730882,0.328023188 10.5281849,0.347791304 C10.5032387,0.358631884 10.4782925,0.368834783 10.4539699,0.381588406 C10.3997118,0.409008696 10.348572,0.443443478 10.2980559,0.479791304 C10.2887011,0.486805797 10.2780989,0.491269565 10.2687441,0.498284058 L10.2307011,0.528255072 C10.2225935,0.535269565 10.2132387,0.541646377 10.2051312,0.54866087 L0.470486022,8.20083478 C-0.0558795699,8.61468986 -0.155664516,9.39329855 0.249088172,9.93213913 C0.65384086,10.470342 1.41532473,10.572371 1.94231398,10.1585159 L2.32274409,9.85944348 C2.23917419,10.3587478 2.18616344,10.8682551 2.18616344,11.3911536 C2.18616344,16.3701681 6.13328172,20.4060522 11.0021634,20.4060522 C15.8710452,20.4060522 19.8181634,16.3701681 19.8181634,11.3911536 C19.8181634,10.8682551 19.7657763,10.3587478 19.6815828,9.85944348 L20.0620129,10.1585159 C20.5890022,10.572371 21.350486,10.470342 21.7552387,9.93213913 C22.1606151,9.39329855 22.0608301,8.61468986 21.5338409,8.20083478" id="Fill-9" fill="#F9BF0B" mask="url(#mask-21)"></path>
                    </g>
                    <path d="M24.7335699,17.9221565 C24.7516559,18.0222725 24.785957,18.1000696 24.8364731,18.1542725 C24.8869892,18.209113 24.9612043,18.2365333 25.057871,18.2365333 C25.170129,18.2365333 25.2549462,18.1963594 25.3135699,18.1160116 C25.3721935,18.0356638 25.4015054,17.9342725 25.4015054,17.8118377 C25.4015054,17.6919536 25.3740645,17.5899246 25.3191828,17.5076638 C25.2643011,17.4254029 25.1788602,17.3833159 25.0628602,17.3833159 C25.0079785,17.3833159 24.9605806,17.3903304 24.920043,17.4043594 C24.8495699,17.4305043 24.7965591,17.4789681 24.7603871,17.549113 L24.3556344,17.5293449 L24.5165376,16.2310261 L25.7819355,16.2310261 L25.7819355,16.6232 L24.8427097,16.6232 L24.7603871,17.137171 C24.8302366,17.0906203 24.8844946,17.0593739 24.9237849,17.0447072 C24.9892688,17.0198377 25.0690968,17.0070841 25.1626452,17.0070841 C25.3528602,17.0070841 25.5187527,17.0727652 25.6603226,17.2034899 C25.8012688,17.3342145 25.8723656,17.5248812 25.8723656,17.7748522 C25.8723656,17.9916638 25.8043871,18.1855188 25.6678065,18.3570551 C25.5318495,18.5273159 25.327914,18.6127652 25.0566237,18.6127652 C24.8377204,18.6127652 24.6581075,18.5528232 24.5177849,18.4329391 C24.3774624,18.3124174 24.2988817,18.1427942 24.2832903,17.9221565 L24.7335699,17.9221565 Z" id="Fill-12" fill="#F9BF0B"></path>
                    <path d="M26.2293462,16.929542 L26.2293462,16.6151652 C26.3715398,16.6081507 26.4713247,16.5985855 26.5280774,16.5858319 C26.6191312,16.5654261 26.6927226,16.5239768 26.7494753,16.4627594 C26.7887656,16.4200348 26.8180774,16.3639188 26.8386581,16.2937739 C26.8498839,16.2523246 26.8554968,16.2204406 26.8554968,16.1993971 L27.2328086,16.1993971 L27.2328086,18.5511652 L26.7700559,18.5511652 L26.7700559,16.929542 L26.2293462,16.929542 Z" id="Fill-14" fill="#F9BF0B"></path>
                    <polygon id="Fill-16" fill="#F9BF0B" points="28.0546 18.5511652 28.0546 16.1611362 28.5398043 16.1611362 28.5398043 17.0723826 29.448471 17.0723826 29.448471 16.1611362 29.9342989 16.1611362 29.9342989 18.5511652 29.448471 18.5511652 29.448471 17.4843246 28.5398043 17.4843246 28.5398043 18.5511652"></polygon>
                    <path d="M31.8976925,17.9757217 C32.0118215,17.8296928 32.0679505,17.6218087 32.0679505,17.3527072 C32.0679505,17.0848812 32.0118215,16.8769971 31.8976925,16.7309681 C31.7841871,16.5843014 31.6307677,16.5109681 31.4374344,16.5109681 C31.2434774,16.5109681 31.0894344,16.5836638 30.9746817,16.7303304 C30.8586817,16.8757217 30.8013054,17.0836058 30.8013054,17.3527072 C30.8013054,17.6218087 30.8586817,17.8296928 30.9746817,17.9757217 C31.0894344,18.1217507 31.2434774,18.1944464 31.4374344,18.1944464 C31.6307677,18.1944464 31.7841871,18.1217507 31.8976925,17.9757217 M32.2032839,18.3385623 C32.0267892,18.5241275 31.771714,18.6178667 31.4374344,18.6178667 C31.1031548,18.6178667 30.8474559,18.5241275 30.6709613,18.3385623 C30.433972,18.1109101 30.3161011,17.7818667 30.3161011,17.3527072 C30.3161011,16.915258 30.433972,16.5862145 30.6709613,16.3668522 C30.8474559,16.181287 31.1031548,16.0881855 31.4374344,16.0881855 C31.771714,16.0881855 32.0267892,16.181287 32.2032839,16.3668522 C32.4390258,16.5862145 32.5568968,16.915258 32.5568968,17.3527072 C32.5568968,17.7818667 32.4390258,18.1109101 32.2032839,18.3385623" id="Fill-18" fill="#F9BF0B"></path>
                    <path d="M34.4796903,16.1610725 L35.1825505,16.1610725 L35.1825505,18.5511014 L34.7272817,18.5511014 L34.7272817,16.9345797 C34.7272817,16.888029 34.7279054,16.8229855 34.7291527,16.7388116 C34.7297763,16.6552754 34.7304,16.5908696 34.7304,16.5455942 L34.2876043,18.5511014 L33.8130022,18.5511014 L33.3733247,16.5455942 C33.3733247,16.5908696 33.3739484,16.6552754 33.3751957,16.7388116 C33.3758194,16.8229855 33.376443,16.888029 33.376443,16.9345797 L33.376443,18.5511014 L32.9211742,18.5511014 L32.9211742,16.1610725 L33.6321419,16.1610725 L34.0574753,18.0403188 L34.4796903,16.1610725 Z" id="Fill-20" fill="#F9BF0B"></path>
                    <polygon id="Fill-22" fill="#F9BF0B" points="37.3634753 16.5839188 36.1261419 16.5839188 36.1261419 17.091513 37.2618194 17.091513 37.2618194 17.5066435 36.1261419 17.5066435 36.1261419 18.1213681 37.420228 18.1213681 37.420228 18.5511652 35.6490452 18.5511652 35.6490452 16.1611362 37.3634753 16.1611362"></polygon>
                    <path d="M39.3513785,16.1610725 L40.0542387,16.1610725 L40.0542387,18.5511014 L39.5989699,18.5511014 L39.5989699,16.9345797 C39.5989699,16.888029 39.5995935,16.8229855 39.6008409,16.7388116 C39.6014645,16.6552754 39.6020882,16.5908696 39.6020882,16.5455942 L39.1592925,18.5511014 L38.6846903,18.5511014 L38.2450129,16.5455942 C38.2450129,16.5908696 38.2456366,16.6552754 38.2468839,16.7388116 C38.2475075,16.8229855 38.2481312,16.888029 38.2481312,16.9345797 L38.2481312,18.5511014 L37.7928624,18.5511014 L37.7928624,16.1610725 L38.5038301,16.1610725 L38.9291634,18.0403188 L39.3513785,16.1610725 Z" id="Fill-24" fill="#F9BF0B"></path>
                    <path d="M42.0007312,17.9757217 C42.1148602,17.8296928 42.1709892,17.6218087 42.1709892,17.3527072 C42.1709892,17.0848812 42.1148602,16.8769971 42.0007312,16.7309681 C41.8872258,16.5843014 41.7338065,16.5109681 41.5404731,16.5109681 C41.3465161,16.5109681 41.1924731,16.5836638 41.0777204,16.7303304 C40.9617204,16.8757217 40.9043441,17.0836058 40.9043441,17.3527072 C40.9043441,17.6218087 40.9617204,17.8296928 41.0777204,17.9757217 C41.1924731,18.1217507 41.3465161,18.1944464 41.5404731,18.1944464 C41.7338065,18.1944464 41.8872258,18.1217507 42.0007312,17.9757217 M42.3063226,18.3385623 C42.129828,18.5241275 41.8747527,18.6178667 41.5404731,18.6178667 C41.2061935,18.6178667 40.9504946,18.5241275 40.774,18.3385623 C40.5370108,18.1109101 40.4191398,17.7818667 40.4191398,17.3527072 C40.4191398,16.915258 40.5370108,16.5862145 40.774,16.3668522 C40.9504946,16.181287 41.2061935,16.0881855 41.5404731,16.0881855 C41.8747527,16.0881855 42.129828,16.181287 42.3063226,16.3668522 C42.5420645,16.5862145 42.6599355,16.915258 42.6599355,17.3527072 C42.6599355,17.7818667 42.5420645,18.1109101 42.3063226,18.3385623" id="Fill-26" fill="#F9BF0B"></path>
                    <polygon id="Fill-28" fill="#F9BF0B" points="43.0245247 16.1610725 43.5365462 16.1610725 44.4651699 17.8273333 44.4651699 16.1610725 44.9198151 16.1610725 44.9198151 18.5511014 44.4314925 18.5511014 43.4797935 16.8555072 43.4797935 18.5511014 43.0245247 18.5511014"></polygon>
                    <polygon id="Fill-30" fill="#F9BF0B" points="47.106914 16.5839188 45.8695806 16.5839188 45.8695806 17.091513 47.0052581 17.091513 47.0052581 17.5066435 45.8695806 17.5066435 45.8695806 18.1213681 47.1636667 18.1213681 47.1636667 18.5511652 45.3924839 18.5511652 45.3924839 16.1611362 47.106914 16.1611362"></polygon>
                    <polygon id="Fill-32" fill="#F9BF0B" points="48.877972 16.1610725 49.4317785 16.1610725 48.649714 17.6551594 48.649714 18.5511014 48.1613914 18.5511014 48.1613914 17.6551594 47.3525097 16.1610725 47.9281441 16.1610725 48.4133484 17.2017681"></polygon>
                    <mask id="mask-23" fill="white">
                        <use xlink:href="#path-22"></use>
                    </mask>
                    <g id="Clip-35"></g>
                    <polygon id="Fill-34" fill="#F9BF0B" mask="url(#mask-23)" points="49.3062366 18.5513565 49.7870753 18.5513565 49.7870753 18.0660812 49.3062366 18.0660812"></polygon>
                    <path d="M50.476714,16.4107884 C50.6650581,16.2137449 50.9045419,16.115542 51.1951656,16.115542 C51.5843269,16.115542 51.868714,16.247542 52.0489505,16.5109043 C52.1481118,16.6594841 52.2017462,16.8080638 52.2086065,16.9566435 L51.7202839,16.9566435 C51.6891011,16.8424986 51.6491871,16.7557739 51.6005419,16.6977449 C51.5138538,16.5938029 51.384757,16.5421507 51.2138753,16.5421507 C51.0398753,16.5421507 50.902671,16.6148464 50.8016387,16.761513 C50.7012301,16.9081797 50.6513376,17.1154261 50.6513376,17.3832522 C50.6513376,17.6517159 50.7043484,17.8525855 50.8103699,17.9864986 C50.9163914,18.1197739 51.0511011,18.1860928 51.2144989,18.1860928 C51.3822624,18.1860928 51.5094882,18.1287014 51.5980473,18.0145565 C51.6460688,17.9527014 51.6866065,17.8602377 51.7184129,17.7371652 L52.2042409,17.7371652 C52.1618323,17.9973391 52.0551871,18.2090493 51.8830581,18.3729333 C51.710929,18.5361797 51.4907785,18.6178029 51.2213591,18.6178029 C50.8889505,18.6178029 50.6276387,18.5074841 50.4374237,18.2868464 C50.2472086,18.065571 50.1517892,17.7613971 50.1517892,17.3756 C50.1517892,16.9579188 50.2596817,16.6365275 50.476714,16.4107884" id="Fill-36" fill="#F9BF0B" mask="url(#mask-23)"></path>
                    <path d="M54.0931699,17.9757217 C54.2072989,17.8296928 54.263428,17.6218087 54.263428,17.3527072 C54.263428,17.0848812 54.2072989,16.8769971 54.0931699,16.7309681 C53.9796645,16.5843014 53.8262452,16.5109681 53.6329118,16.5109681 C53.4389548,16.5109681 53.2849118,16.5836638 53.1701591,16.7303304 C53.0541591,16.8757217 52.9967828,17.0836058 52.9967828,17.3527072 C52.9967828,17.6218087 53.0541591,17.8296928 53.1701591,17.9757217 C53.2849118,18.1217507 53.4389548,18.1944464 53.6329118,18.1944464 C53.8262452,18.1944464 53.9796645,18.1217507 54.0931699,17.9757217 M54.3987613,18.3385623 C54.2222667,18.5241275 53.9671914,18.6178667 53.6329118,18.6178667 C53.2986323,18.6178667 53.0429333,18.5241275 52.8664387,18.3385623 C52.6294495,18.1109101 52.5115785,17.7818667 52.5115785,17.3527072 C52.5115785,16.915258 52.6294495,16.5862145 52.8664387,16.3668522 C53.0429333,16.181287 53.2986323,16.0881855 53.6329118,16.0881855 C53.9671914,16.0881855 54.2222667,16.181287 54.3987613,16.3668522 C54.6345032,16.5862145 54.7523742,16.915258 54.7523742,17.3527072 C54.7523742,17.7818667 54.6345032,18.1109101 54.3987613,18.3385623" id="Fill-37" fill="#F9BF0B" mask="url(#mask-23)"></path>
                    <path d="M56.6754796,16.1610725 L57.3783398,16.1610725 L57.3783398,18.5511014 L56.923071,18.5511014 L56.923071,16.9345797 C56.923071,16.888029 56.9236946,16.8229855 56.9249419,16.7388116 C56.9255656,16.6552754 56.9261892,16.5908696 56.9261892,16.5455942 L56.4833935,18.5511014 L56.0087914,18.5511014 L55.569114,16.5455942 C55.569114,16.5908696 55.5697376,16.6552754 55.5709849,16.7388116 C55.5716086,16.8229855 55.5722323,16.888029 55.5722323,16.9345797 L55.5722323,18.5511014 L55.1169634,18.5511014 L55.1169634,16.1610725 L55.8279312,16.1610725 L56.2532645,18.0403188 L56.6754796,16.1610725 Z" id="Fill-38" fill="#F9BF0B" mask="url(#mask-23)"></path>
                </g>
            </g>
        </g>
    </g>
</svg>