<?xml version="1.0" encoding="UTF-8"?>
<svg width="113px" height="81px" viewBox="0 0 113 81" version="1.1" xmlns="http://www.w3.org/2000/svg" xmlns:xlink="http://www.w3.org/1999/xlink">
    <!-- Generator: Sketch 41.2 (35397) - http://www.bohemiancoding.com/sketch -->
    <title>空数据</title>
    <desc>Created with Sketch.</desc>
    <defs></defs>
    <g id="CDJ" stroke="none" stroke-width="1" fill="none" fill-rule="evenodd">
        <g id="添加房产-空" transform="translate(-132.000000, -325.000000)">
            <g id="空数据" transform="translate(132.000000, 325.000000)">
                <g id="Group">
                    <path d="M50.3453574,62.5469121 L50.3453574,62.5469121 L50.3453574,62.3926695 L50.3453574,62.3926695 L50.3453574,62.5469121 Z" id="Shape" fill="#000000"></path>
                    <path d="M56.5414484,56.3000837 C53.1335984,56.3000837 50.3453574,58.9993305 50.3453574,62.3926695 L50.3453574,62.3926695 L50.3453574,62.4697909 C50.3453574,63.1638829 50.8875154,63.7037323 51.5845757,63.7037323 C52.2816359,63.7037323 52.8237939,63.1638829 52.8237939,62.4697909 C52.8237939,62.4697909 52.8237939,62.5469122 52.8237939,62.3926695 L52.8237939,62.3926695 C52.8237939,60.3875147 54.4502678,58.6908452 56.5414485,58.6908452 C58.6326293,58.6908452 60.2591032,60.3875147 60.2591032,62.3926695 L60.2591032,62.3926695 L60.2591032,62.4697909 C60.2591032,63.1638829 60.8012612,63.7037323 61.4983214,63.7037323 C62.1953816,63.7037323 62.7375396,63.1638829 62.7375396,62.4697909 L62.7375396,62.3926695 C62.7375395,59.0764519 59.9492986,56.3000837 56.5414484,56.3000837 Z" id="Shape" fill="#888888"></path>
                    <path d="M42.1355368,46.7370376 C40.4316117,46.351431 37.8757242,46.4285522 37.3335663,48.2023431 C37.0237617,49.2820418 38.8051379,49.4362846 40.4316118,49.8218912 C41.7482811,50.1303766 42.4453414,50.8244687 42.2904391,51.0558327 C41.9806345,51.4414393 40.0443562,50.670226 38.2629799,51.2871967 C36.5590548,51.9041674 36.8688594,53.4465942 37.8757243,53.8322009 C38.8825891,54.2178075 40.509063,53.7550795 44.3041687,54.3720503 C46.2404472,54.6805357 47.4022142,54.0635649 47.6345676,52.9067448 C48.0992745,50.2846192 44.5365221,47.276887 42.1355368,46.7370376 Z" id="Shape" fill="#888888"></path>
                    <path d="M65.2159759,52.9838661 C65.4483293,54.1406862 66.5326452,54.7576568 68.5463749,54.4491715 C72.3414807,53.8322009 73.9679546,54.2949289 74.9748193,53.9093221 C75.9816841,53.5237155 76.2914886,51.9041674 74.5875636,51.364318 C72.8836386,50.7473473 70.9473602,51.5185606 70.5601044,51.1329539 C70.327751,50.8244687 71.1022624,50.1303766 72.4189317,49.8218912 C74.0454056,49.4362846 75.8267818,49.2820418 75.5169773,48.2023431 C74.9748193,46.4285523 72.4963829,46.351431 70.7150068,46.7370376 C68.3140215,47.276887 64.7512691,50.2846192 65.2159759,52.9838661 Z" id="Shape" fill="#888888"></path>
                    <path d="M111.609207,20.7471465 L90.0777912,1.00408368 C89.3807309,0.309991632 88.3738661,0.00150623849 87.3670014,0.00150623849 L25.6384444,0.00150623849 C24.6315796,0.00150623849 23.7021659,0.387112895 23.0051057,1.00408368 L1.31878704,20.7471465 C0.466824556,21.5183599 0.00211772892,22.5209372 0.00211772892,23.6777573 L0.00211772892,72.0328368 C0.00211772892,76.8914812 3.95212576,80.9017908 8.90899862,80.9017908 L104.018996,80.9017908 C108.898418,80.9017908 112.925877,76.8914812 112.925877,72.0328368 L112.925877,23.6777573 C112.925877,22.5980586 112.383719,21.5183598 111.609207,20.7471465 Z M72.7287363,20.4386611 C71.3346158,20.4386611 70.1728488,21.5954812 70.1728488,23.0607866 C70.1728488,30.3101925 63.9767578,36.4027782 56.6188996,36.4027782 C49.2610414,36.4027782 43.0649504,30.3101924 43.0649504,23.0607866 C43.0649504,21.6726025 41.9031834,20.4386611 40.5090629,20.4386611 L10.3031191,20.4386611 L26.4129558,5.78560666 L86.6699411,5.78560666 L102.624876,20.4386611 L72.7287363,20.4386611 Z M106.962139,25.6829121 L106.962139,65.1690376 L106.962139,72.0328367 C106.962139,73.7295062 105.64547,74.9634475 104.018996,74.9634475 L8.90899862,74.9634477 C7.20507355,74.9634477 5.81095307,73.6523849 5.81095307,72.0328368 L5.81095318,25.6829121 L38.0306265,25.6829121 C38.6502356,29.6932218 40.5865141,33.4721673 43.6845596,36.3256569 C47.247312,39.7189957 51.8169291,41.4927866 56.6188996,41.4927866 C61.4208701,41.4927866 65.9904873,39.6418745 69.5532396,36.3256569 C72.573834,33.395046 74.5875635,29.6932218 75.2071727,25.6829121 L106.962139,25.6829121 Z" id="Shape" fill="#DBDBDB"></path>
                </g>
            </g>
        </g>
    </g>
</svg>