<?xml version="1.0" encoding="UTF-8"?>
<svg width="23px" height="21px" viewBox="0 0 23 21" version="1.1" xmlns="http://www.w3.org/2000/svg" xmlns:xlink="http://www.w3.org/1999/xlink">
    <!-- Generator: Sketch 41.2 (35397) - http://www.bohemiancoding.com/sketch -->
    <title>物业管理</title>
    <desc>Created with Sketch.</desc>
    <defs></defs>
    <g id="二期" stroke="none" stroke-width="1" fill="none" fill-rule="evenodd" opacity="0.5">
        <g id="Group-5" transform="translate(-17.000000, -14.000000)" fill="#000000">
            <g id="Group-2-Copy-4">
                <g id="物业管理" transform="translate(17.000000, 14.000000)">
                    <path d="M10.7277838,8.19397993 C10.5214843,8.19372241 9.38196853,8.19203679 9.18942234,8.19397993 C8.99687614,8.19592308 8.91834924,8.27055853 8.91837259,8.44204682 C8.91837259,8.61355853 8.91846599,9.8111204 8.91837259,9.97855853 C8.91827919,10.1460201 9.01651371,10.2556087 9.17172284,10.2559599 C9.32693198,10.256311 10.5883127,10.2595184 10.739599,10.2559599 C10.8908853,10.2523779 10.995798,10.1420635 10.995798,10.002204 C10.995798,9.86234448 10.9946071,8.64490635 10.995798,8.4716388 C10.9969888,8.29837124 10.9340832,8.19423746 10.7277838,8.19397993 Z M9.64837157,18.489903 L3.77914518,18.4767224 L3.78166701,9.29344816 L4.47248426,8.58459866 C4.47248426,8.58459866 10.8501391,2.2651204 11.1249249,2.00284281 C11.3997107,1.74056522 11.6668376,1.73267559 11.9189736,1.98235786 C12.1711096,2.23204013 18.6407645,8.63795318 18.6407645,8.63795318 C18.6407645,8.63795318 21.2195431,11.0845117 21.8570518,11.6888528 C22.4945371,12.293194 23.4120386,11.3964916 22.7646294,10.7691605 C22.1172203,10.1417826 12.4758071,0.798795987 12.4758071,0.798795987 C12.4758071,0.798795987 12.2602609,0.585003344 11.9242975,0.254060201 C11.588334,-0.0768829431 11.3791624,-0.0738628763 11.0656386,0.238187291 C10.7520914,0.550237458 10.4989046,0.798772575 10.4989046,0.798772575 C10.4989046,0.798772575 0.835191878,10.4394582 0.239643655,11.0291672 C-0.355904569,11.6188763 0.38091269,12.5033813 1.03990355,11.8462241 C1.69889442,11.1890903 2.68163655,10.2090669 2.68163655,10.2090669 C2.68163655,10.2090669 2.68504569,19.1167425 2.68163655,19.2861237 C2.67822741,19.4555284 2.72537157,19.5429699 2.94934721,19.5429699 L10.8791168,19.5429699 C10.8791168,19.5429699 10.9572467,19.4020569 10.8790467,19.3691405 C10.2390863,19.0997926 9.99666396,18.9310903 9.64837157,18.489903 Z M20.1150528,14.9490736 L13.9685655,14.9490736 C13.7301594,14.9490736 13.5363523,14.8992542 13.5363523,15.1368094 C13.5363523,15.3743177 13.7301594,15.3727726 13.9685655,15.3727726 L20.1150528,15.3727726 C20.3534589,15.3727726 20.547266,15.4063445 20.547266,15.1687893 C20.547266,14.9312341 20.3534589,14.9490736 20.1150528,14.9490736 Z M19.1546802,12.3428261 L14.9289147,12.3428261 C12.6820599,12.3428261 10.9643452,13.4776455 10.9643452,15.7359064 C10.9643452,17.8157023 12.7961959,19.2978528 14.8137279,19.5745518 C15.0433543,19.7884849 14.6624883,20.5299231 14.4539472,20.8931271 C14.3828457,21.0169732 14.4557218,21.0147023 14.5380315,20.9656087 C15.2258832,20.5553712 16.7828081,19.806301 17.2680497,19.5623545 L19.1546802,19.5623545 C21.400998,19.5623545 22.9305563,17.9942609 22.9305563,15.7359298 C22.930533,13.4776221 21.400998,12.3428261 19.1546802,12.3428261 Z M18.756465,18.7440803 L15.5325421,18.7440803 C14.0056223,18.7440803 11.7607289,17.6793545 11.7859939,15.7221873 C11.8113056,13.762 13.6482,13.0752508 15.5325421,13.1102274 L18.7564416,13.0964849 C20.9178812,13.0440669 22.0907645,14.2033043 22.125066,15.7221873 C22.163267,17.4141973 20.9957543,18.7564415 18.756465,18.7440803 Z M20.1150528,16.4993746 L13.9685655,16.4993746 C13.7301594,16.4993746 13.5363523,16.4500468 13.5363523,16.6875084 C13.5363523,16.9250401 13.7301594,16.9235886 13.9685655,16.9235886 L20.1150528,16.9235886 C20.3534589,16.9235886 20.547266,16.9571605 20.547266,16.7196054 C20.547266,16.4820502 20.3534589,16.4993746 20.1150528,16.4993746 Z M8.15005584,8.1860903 C7.94375635,8.18583278 6.80424061,8.18414716 6.61169442,8.1860903 C6.41912487,8.18803344 6.34062132,8.2626689 6.34064467,8.43415719 C6.34066802,8.60564548 6.34073807,9.80323077 6.34064467,9.9706689 C6.34055127,10.1381304 6.43880914,10.2476722 6.59399492,10.2480468 C6.74920406,10.2484448 8.01058477,10.2516054 8.16187107,10.2480468 C8.31315736,10.2445117 8.41807005,10.1341739 8.41807005,9.99433779 C8.41807005,9.85447826 8.41687919,8.63701672 8.41807005,8.46374916 C8.41923756,8.29048161 8.35635533,8.18637124 8.15005584,8.1860903 Z M10.7277838,10.7390301 C10.5214843,10.7387726 9.38196853,10.7371104 9.18942234,10.7390301 C8.99687614,10.7409967 8.91834924,10.8156321 8.91837259,10.9871672 C8.91837259,11.1586321 8.91846599,12.356194 8.91837259,12.5236321 C8.91827919,12.6911171 9.01651371,12.8006823 9.17172284,12.8010569 C9.32693198,12.8014314 10.5883127,12.8045686 10.739599,12.8010569 C10.8908853,12.7974983 10.995798,12.6871605 10.995798,12.5472776 C10.995798,12.4074415 10.9946071,11.1899565 10.995798,11.0167124 C10.9969655,10.843398 10.9340832,10.7392642 10.7277838,10.7390301 Z M8.15005584,10.7311873 C7.94375635,10.7309064 6.80424061,10.7292207 6.61169442,10.7311873 C6.41912487,10.733107 6.34062132,10.8077659 6.34064467,10.9792542 C6.34066802,11.1507425 6.34073807,12.3483278 6.34064467,12.5157659 C6.34055127,12.683204 6.43880914,12.7927692 6.59399492,12.7931438 C6.74920406,12.7935184 8.01058477,12.7967023 8.16187107,12.7931438 C8.31315736,12.7895853 8.41807005,12.6792475 8.41807005,12.5394114 C8.41807005,12.3995284 8.41687919,11.1820903 8.41807005,11.0088227 C8.41923756,10.8355552 8.35635533,10.7314214 8.15005584,10.7311873 Z" id="Shape"></path>
                </g>
            </g>
        </g>
    </g>
</svg>